<?xml version="1.0" standalone="no"?>
<!DOCTYPE svg PUBLIC "-//W3C//DTD SVG 20010904//EN"
 "http://www.w3.org/TR/2001/REC-SVG-20010904/DTD/svg10.dtd">
<svg version="1.0" xmlns="http://www.w3.org/2000/svg"
 width="1400.000000pt" height="1400.000000pt" viewBox="0 0 1400.000000 1400.000000"
 preserveAspectRatio="xMidYMid meet">
<metadata>
Created by potrace 1.11, written by Peter Selinger 2001-2013
</metadata>
<g transform="translate(0.000000,1400.000000) scale(0.100000,-0.100000)"
fill="#000000" stroke="none">
<path d="M6922 12258 c-17 -17 -15 -57 3 -64 22 -9 70 11 73 30 8 37 -48 62
-76 34z"/>
<path d="M6491 11913 c-5 -11 -6 -25 -2 -32 12 -18 53 5 49 27 -5 24 -35 27
-47 5z"/>
<path d="M7230 11788 c-11 -12 -20 -34 -20 -48 0 -37 22 -80 42 -80 9 0 20 -4
23 -10 13 -21 60 -10 86 19 31 36 31 82 -2 117 -31 33 -99 34 -129 2z"/>
<path d="M6784 11655 c-8 -21 2 -45 19 -45 20 0 40 27 33 45 -7 19 -45 20 -52
0z"/>
<path d="M8370 11464 c-41 -8 -339 -84 -427 -109 -44 -13 -128 -29 -185 -36
-56 -6 -114 -13 -128 -15 -118 -18 -294 -33 -382 -32 -58 0 -111 -3 -118 -7
-7 -4 -15 -3 -19 3 -4 6 -25 14 -47 18 -65 10 -170 -45 -215 -112 l-16 -24
-13 25 c-10 18 -16 22 -22 13 -5 -9 -8 -8 -8 5 0 10 -5 15 -10 12 -13 -8 -35
14 -45 43 -5 17 -10 20 -19 13 -8 -7 -15 -4 -24 10 -15 24 -32 16 -33 -14 0
-21 -1 -21 -10 3 -8 20 -12 22 -19 10 -7 -10 -10 -11 -10 -2 0 22 -39 13 -56
-13 -9 -14 -27 -28 -40 -31 -12 -3 -26 -13 -29 -22 -39 -99 -66 -964 -46
-1478 10 -249 27 -638 30 -677 1 -5 6 -5 11 -2 6 3 10 1 10 -4 0 -15 -5 -14
-53 10 -202 103 -418 353 -569 660 -51 103 -212 490 -206 493 2 1 30 12 63 25
152 60 210 94 278 162 96 95 139 190 145 312 9 172 -37 287 -162 412 -90 89
-152 125 -273 156 -91 23 -154 24 -248 4 -102 -22 -171 -59 -247 -136 -38 -37
-68 -63 -68 -59 0 18 62 196 75 216 11 17 12 29 3 55 -6 19 -12 40 -14 47 -6
23 -69 13 -111 -17 -66 -48 -170 -176 -214 -264 -113 -224 -182 -456 -339
-1129 -110 -477 -133 -568 -140 -568 -3 0 -18 35 -32 78 -143 419 -183 543
-231 712 -30 107 -67 250 -82 318 -80 373 -189 534 -365 535 -93 1 -183 -59
-254 -171 -69 -110 -173 -400 -296 -822 -38 -135 -72 -249 -73 -254 -7 -22
-92 403 -146 734 -66 398 -87 469 -153 531 -21 20 -38 41 -38 47 0 7 -10 12
-22 12 -12 0 -29 7 -39 16 -19 17 -39 12 -39 -10 0 -28 -24 -35 -65 -20 -101
36 -255 -1 -340 -82 -57 -55 -75 -84 -69 -110 3 -12 1 -32 -6 -43 -9 -17 -8
-28 4 -53 9 -17 16 -39 16 -50 0 -10 5 -17 11 -15 6 1 15 -5 20 -13 17 -29 69
-149 69 -159 0 -6 18 -52 40 -102 22 -51 40 -100 40 -110 0 -10 4 -20 9 -23 5
-3 12 -18 16 -33 3 -16 15 -46 25 -68 74 -156 102 -243 145 -452 79 -383 169
-687 218 -730 12 -11 41 -25 63 -31 23 -7 47 -19 54 -27 7 -8 17 -15 22 -15 6
0 26 -14 45 -30 25 -23 38 -28 50 -21 11 6 26 5 42 -2 19 -9 25 -9 29 1 5 17
22 15 43 -4 23 -21 46 -12 62 23 6 15 31 45 55 66 23 22 42 47 42 56 0 9 4 21
9 27 6 5 26 43 46 84 21 41 44 83 52 92 8 9 12 21 9 26 -3 5 14 75 38 154 39
128 74 255 223 818 19 74 39 139 43 143 6 7 85 -290 126 -473 28 -130 229
-718 302 -889 94 -217 105 -232 194 -274 40 -19 82 -44 92 -56 11 -12 27 -21
38 -21 25 0 23 -9 -9 -42 l-27 -28 40 0 c27 0 55 10 87 30 26 17 52 30 57 30
6 0 10 5 10 11 0 6 11 25 24 42 97 129 177 399 280 937 40 209 106 579 106
594 0 5 2 7 5 5 2 -3 11 -59 20 -124 14 -109 20 -466 10 -625 -10 -163 -42
-301 -76 -331 -37 -32 -15 -99 48 -146 21 -15 67 -53 103 -84 86 -74 100 -81
158 -73 76 10 134 43 157 91 11 22 26 48 33 56 8 9 14 33 15 54 0 21 5 44 11
51 7 10 6 16 -6 23 -13 7 -16 37 -16 201 -1 209 -9 415 -19 463 -10 55 8 18
43 -84 98 -293 209 -490 402 -713 132 -153 310 -284 486 -357 147 -61 330 -78
377 -35 11 10 53 35 93 55 39 20 70 41 69 47 -2 6 6 16 18 22 15 9 18 15 9 25
-9 10 -4 16 23 24 19 7 45 23 58 37 l24 26 -37 -4 c-21 -2 -38 -3 -38 -1 0 1
16 9 35 17 31 13 34 18 24 34 -11 18 -31 19 -181 9 -35 -2 -38 0 -38 23 0 37
11 71 21 64 12 -7 12 -55 9 891 l-2 850 22 -28 c28 -36 73 -59 135 -69 80 -14
108 -14 135 -1 14 7 32 10 41 8 9 -3 19 1 22 9 3 8 23 18 44 22 21 4 62 15 92
26 30 10 56 16 58 14 2 -2 38 5 81 15 42 9 78 17 79 16 1 -2 7 -106 14 -232
10 -181 10 -282 1 -475 -7 -135 -17 -346 -22 -470 -6 -124 -15 -261 -20 -304
-6 -44 -10 -116 -10 -161 0 -69 3 -85 20 -100 11 -10 20 -22 20 -27 0 -5 6
-16 14 -23 10 -10 16 -11 25 -2 8 8 11 7 11 -6 0 -10 5 -14 14 -11 9 3 28 -7
44 -24 21 -22 36 -29 51 -25 15 4 23 -1 30 -18 5 -13 10 -19 10 -12 1 7 7 10
15 7 9 -3 18 5 24 23 6 16 11 21 11 11 1 -23 21 -34 32 -17 6 10 9 11 9 2 0
-24 69 -15 95 12 14 13 25 20 25 15 0 -14 57 19 64 37 30 78 28 293 -14 1228
-16 345 -24 675 -16 675 4 0 80 16 169 35 439 97 425 92 503 172 30 31 54 58
54 61 0 3 9 15 20 27 15 16 18 29 13 58 -3 20 -10 37 -14 37 -5 0 -9 8 -9 18
0 11 -9 29 -20 42 -11 13 -20 26 -20 30 0 4 -33 22 -72 41 -64 29 -85 33 -163
35 -49 1 -101 0 -115 -2z m-1589 -469 l-9 -90 3 125 c2 69 5 127 6 130 8 17 8
-89 0 -165z m-1083 -127 c47 -29 86 -100 86 -159 0 -60 -76 -219 -132 -278
-35 -36 -53 -45 -144 -65 -15 -3 -33 -13 -42 -21 -8 -8 -17 -15 -19 -15 -2 0
-7 46 -11 103 -12 174 25 377 78 426 45 43 121 46 184 9z m2249 -80 c-2 -13
-4 -5 -4 17 -1 22 1 32 4 23 2 -10 2 -28 0 -40z m-1099 -295 l-2 -338 -6 300
c-5 275 -3 375 6 375 2 0 3 -152 2 -337z m757 -912 c-9 -146 -20 -288 -25
-316 l-7 -50 -2 50 c0 28 8 169 19 315 11 146 21 292 22 325 l2 60 3 -59 c2
-33 -3 -179 -12 -325z m68 -348 c-3 -21 -9 -54 -14 -73 -12 -47 -12 -103 1
-95 6 3 10 2 10 -3 0 -5 -9 -12 -20 -15 -24 -6 -25 -2 -5 118 8 50 15 93 15
98 0 4 4 7 9 7 6 0 7 -17 4 -37z m-1123 -21 c0 -28 -3 -33 -10 -22 -13 20 -13
73 0 65 6 -3 10 -23 10 -43z m1045 -89 c-5 -10 -7 -25 -6 -33 2 -12 0 -12 -10
-3 -10 10 -10 18 0 39 6 15 14 24 18 21 3 -3 2 -14 -2 -24z m-1025 -83 c12 19
30 2 30 -26 0 -22 -3 -24 -22 -19 -33 10 -40 19 -31 40 4 13 8 15 11 6 3 -10
6 -11 12 -1z m138 -57 c2 -8 -5 -13 -17 -13 -12 0 -21 6 -21 16 0 18 31 15 38
-3z m72 -3 c0 -5 -4 -10 -10 -10 -5 0 -10 5 -10 10 0 6 5 10 10 10 6 0 10 -4
10 -10z"/>
<path d="M6770 11306 c0 -9 5 -16 10 -16 6 0 10 4 10 9 0 6 -4 13 -10 16 -5 3
-10 -1 -10 -9z"/>
<path d="M10724 11275 c-234 -51 -383 -239 -429 -541 -17 -111 -19 -323 -5
-429 5 -38 14 -106 20 -150 10 -70 13 -471 5 -595 -5 -86 -26 -222 -40 -263
-8 -22 -12 -44 -9 -49 3 -4 -2 -8 -10 -8 -9 0 -16 -4 -16 -10 0 -5 -6 -10 -14
-10 -11 0 -12 -8 -7 -33 12 -49 27 -73 69 -104 20 -15 66 -53 102 -84 86 -74
100 -81 158 -73 78 10 134 43 158 94 12 24 28 48 35 54 8 6 14 27 14 46 -1 19
3 44 8 54 7 14 5 21 -5 27 -11 6 -14 48 -16 211 -2 224 -10 433 -19 462 -3 12
-1 16 6 12 6 -4 11 -14 11 -22 0 -26 100 -286 145 -379 117 -238 312 -478 507
-626 92 -69 273 -160 368 -185 37 -10 105 -18 156 -18 78 -1 95 2 114 19 12
11 54 36 94 56 39 20 70 41 69 47 -2 6 6 16 18 22 15 9 18 15 9 25 -9 10 -4
16 23 24 19 7 45 23 58 38 l24 26 -37 -6 c-47 -7 -48 -2 -3 17 32 14 34 17 23
36 -8 12 -19 18 -30 14 -9 -2 -90 -5 -180 -6 -125 -1 -178 2 -228 16 -77 20
-191 72 -257 117 -174 120 -350 342 -482 606 -54 106 -216 494 -209 497 2 1
30 12 63 25 217 86 308 157 377 298 38 76 42 93 46 175 9 174 -37 289 -162
413 -90 89 -153 125 -273 156 -87 22 -161 23 -249 4z m230 -413 c51 -35 81
-93 80 -154 -1 -60 -77 -219 -132 -277 -35 -36 -53 -45 -144 -65 -15 -3 -33
-13 -42 -21 -8 -8 -17 -15 -19 -15 -2 0 -7 46 -11 103 -12 174 25 377 78 426
49 46 125 47 190 3z"/>
<path d="M9050 11258 c-35 -5 -74 -14 -86 -21 -97 -55 -174 -132 -174 -175 0
-15 -9 -45 -20 -66 -14 -29 -18 -53 -15 -89 2 -28 -1 -59 -6 -70 -8 -14 -7
-22 7 -31 15 -11 17 -29 15 -142 -1 -70 -4 -131 -6 -135 -3 -3 -7 -44 -9 -89
-5 -88 -11 -100 -44 -103 -11 0 -28 -11 -37 -23 -9 -12 -34 -41 -56 -65 -26
-28 -36 -46 -29 -54 5 -6 7 -33 5 -59 -5 -66 6 -90 62 -130 l48 -35 -7 -118
c-4 -65 -9 -149 -12 -188 -4 -82 10 -262 25 -320 43 -163 177 -287 363 -335
199 -52 435 -48 621 11 50 16 122 39 160 51 39 12 75 28 80 35 6 8 24 17 40
21 17 5 28 13 25 18 -6 10 -11 10 -59 -1 -23 -5 -31 -4 -27 4 4 5 22 13 41 17
20 3 38 11 42 17 4 6 -3 8 -18 4 -33 -8 -129 -18 -106 -11 9 3 17 12 17 20 0
10 13 14 44 14 25 0 48 5 52 12 5 8 -5 9 -34 5 -23 -3 -44 -2 -47 3 -2 4 -32
10 -65 14 -79 9 -75 28 10 41 36 6 65 16 68 24 3 10 -3 11 -27 6 -27 -6 -31
-4 -31 14 0 18 6 21 40 21 22 0 40 4 40 9 0 5 -10 7 -21 4 -18 -5 -20 -3 -14
15 6 22 6 22 -137 17 -79 -3 -186 -1 -238 5 -52 6 -142 15 -200 20 -125 11
-155 17 -171 37 -16 18 -15 172 1 321 l12 111 262 0 c226 0 269 2 316 18 50
16 55 21 60 52 4 29 10 36 37 43 27 7 30 11 25 32 -4 13 -22 36 -41 52 l-33
28 22 18 c21 17 22 20 6 36 -12 15 -13 21 -3 31 9 10 9 15 -5 25 -11 8 -15 20
-11 34 13 50 1 52 -290 52 l-270 0 7 43 c4 23 17 98 28 167 32 200 34 208 47
223 6 8 9 21 6 28 -4 12 21 13 152 7 87 -3 179 -9 204 -13 44 -7 49 -5 86 29
22 20 45 36 50 36 6 0 16 7 23 15 7 8 23 15 35 15 24 0 85 50 85 69 0 14 33
14 47 0 13 -13 69 -3 79 13 4 6 -3 19 -14 29 -31 25 -27 32 8 14 39 -20 60
-19 60 4 0 11 5 21 11 23 10 3 -25 49 -85 111 -52 54 -248 116 -436 137 -107
12 -491 11 -590 -2z m885 -2138 c-3 -5 -16 -10 -28 -9 -21 0 -21 1 -2 9 28 12
37 12 30 0z"/>
<path d="M9527 9788 c-5 -15 13 -58 24 -58 11 0 18 26 12 49 -6 23 -29 28 -36
9z"/>
<path d="M10030 9555 c0 -14 4 -25 9 -25 12 0 23 29 15 41 -10 18 -24 9 -24
-16z"/>
<path d="M10028 9373 c6 -2 18 -2 25 0 6 3 1 5 -13 5 -14 0 -19 -2 -12 -5z"/>
<path d="M9973 9363 c9 -2 23 -2 30 0 6 3 -1 5 -18 5 -16 0 -22 -2 -12 -5z"/>
<path d="M10128 9333 c7 -3 16 -2 19 1 4 3 -2 6 -13 5 -11 0 -14 -3 -6 -6z"/>
<path d="M3885 9230 c-20 -22 -20 -22 4 -41 13 -10 29 -19 36 -19 20 0 37 27
33 52 -4 32 -47 36 -73 8z"/>
<path d="M10018 9233 c7 -3 16 -2 19 1 4 3 -2 6 -13 5 -11 0 -14 -3 -6 -6z"/>
<path d="M3360 8935 c-7 -8 -10 -22 -6 -30 7 -20 40 -19 57 1 11 14 10 18 -6
30 -24 18 -30 18 -45 -1z"/>
<path d="M9680 8789 c0 -11 5 -17 10 -14 6 3 10 13 10 21 0 8 -4 14 -10 14 -5
0 -10 -9 -10 -21z"/>
<path d="M4861 8774 c-19 -16 -33 -39 -37 -62 -4 -20 -11 -43 -17 -50 -7 -9
-7 -20 1 -35 6 -12 13 -31 16 -42 9 -31 73 -95 95 -95 11 0 31 5 45 11 20 9
29 9 40 -1 13 -10 17 -8 26 12 6 13 24 31 40 40 22 13 30 26 35 61 10 63 -7
106 -60 150 -39 33 -50 37 -99 37 -44 0 -60 -5 -85 -26z"/>
<path d="M9860 8745 c0 -8 5 -15 10 -15 6 0 10 7 10 15 0 8 -4 15 -10 15 -5 0
-10 -7 -10 -15z"/>
<path d="M3100 8710 c0 -5 5 -10 10 -10 6 0 10 5 10 10 0 6 -4 10 -10 10 -5 0
-10 -4 -10 -10z"/>
<path d="M9737 8524 c-14 -14 -7 -35 11 -32 9 2 17 10 17 17 0 16 -18 25 -28
15z"/>
<path d="M9470 8281 c0 -15 6 -21 21 -21 14 0 19 5 17 17 -5 26 -38 29 -38 4z"/>
<path d="M9302 8173 c-33 -29 -35 -66 -7 -97 31 -33 74 -34 103 -3 28 30 28
68 -1 95 -28 27 -68 28 -95 5z"/>
<path d="M7188 7984 c-157 -38 -302 -155 -392 -317 -77 -138 -117 -331 -99
-479 l9 -77 -109 -88 c-208 -167 -345 -340 -384 -483 -12 -45 -18 -103 -18
-185 0 -111 2 -124 29 -182 36 -79 96 -135 189 -178 144 -66 307 -82 450 -46
87 23 205 75 270 120 l44 30 20 -22 c11 -12 34 -43 51 -69 83 -123 207 -124
369 -5 64 48 118 123 107 150 -7 20 -36 27 -78 17 -34 -7 -35 -7 -70 53 -40
67 -43 79 -21 97 25 21 116 169 152 249 19 42 46 100 60 128 42 87 16 123 -89
123 -39 0 -57 -5 -75 -22 -17 -16 -37 -22 -71 -23 -58 -1 -99 -27 -143 -92
-17 -24 -35 -41 -40 -36 -29 29 -128 309 -129 364 0 9 34 42 75 73 138 106
283 274 348 401 113 225 55 435 -138 494 -80 25 -227 27 -317 5z m132 -344
c28 -52 -31 -146 -123 -198 -29 -16 -59 -37 -66 -46 -24 -29 -34 -18 -29 37
10 124 177 283 218 207z m-500 -993 c0 -23 69 -156 105 -204 19 -25 35 -50 35
-55 0 -6 -37 -9 -91 -6 -88 3 -92 4 -120 35 -54 61 -51 98 11 186 40 55 60 70
60 44z"/>
<path d="M3839 5883 c-7 -17 -9 -92 -7 -191 l3 -162 -122 0 -123 0 -7 -27
c-10 -35 -10 -277 -1 -319 l7 -31 -61 -7 c-34 -3 -63 -8 -65 -10 -14 -13 -24
-163 -17 -241 4 -49 6 -124 4 -165 -2 -41 -4 -109 -3 -150 0 -79 1 -244 0
-395 0 -49 3 -111 7 -137 l7 -48 64 0 64 0 -7 -37 c-9 -51 -9 -281 1 -315 l7
-28 123 0 123 0 -4 -144 c-3 -80 -1 -165 2 -190 l7 -46 450 0 c419 0 450 1
457 18 4 9 7 92 7 183 l0 167 44 6 c24 3 79 6 122 6 73 0 79 2 84 23 6 28 8
128 8 537 0 179 0 366 0 415 1 50 -3 107 -7 128 l-7 37 -324 0 -323 0 -8 -32
c-10 -44 -7 -275 4 -313 l8 -30 127 -3 126 -3 -7 -32 c-4 -18 -7 -86 -6 -152
2 -198 2 -244 0 -375 0 -69 2 -142 6 -162 l7 -38 -316 0 -315 0 8 43 c12 60 7
293 -6 317 -9 17 -21 20 -69 20 l-58 0 9 53 c6 30 7 103 3 177 -4 69 -6 157
-4 195 5 92 5 202 0 295 -2 41 -1 129 4 195 4 71 3 141 -2 172 -11 59 -7 63
74 63 38 0 43 3 50 28 9 35 10 279 0 313 -6 24 -4 27 31 33 20 3 162 6 314 6
l278 0 -8 -32 c-9 -44 -9 -286 1 -320 l7 -28 195 0 c107 0 195 3 195 8 0 4 5
36 11 72 14 85 3 265 -18 285 -11 12 -42 15 -133 15 l-119 0 7 33 c9 42 9 307
0 330 -7 16 -38 17 -453 17 l-445 0 -11 -27z"/>
<path d="M9143 5873 c-4 -21 -7 -81 -7 -133 1 -163 2 -302 1 -390 0 -47 0
-132 1 -190 0 -58 0 -145 0 -195 0 -49 0 -135 0 -190 0 -55 0 -140 0 -190 0
-49 0 -135 0 -190 0 -55 0 -140 0 -190 -1 -49 -1 -137 -1 -195 1 -58 1 -143 0
-190 0 -47 0 -134 0 -195 0 -60 0 -155 0 -210 -1 -55 2 -117 6 -137 l8 -38
195 0 c176 0 195 2 201 18 7 15 8 68 6 350 0 50 0 136 1 190 1 53 -2 121 -6
150 l-7 52 125 0 124 0 -7 -27 c-10 -36 -10 -290 0 -325 l7 -28 126 0 125 0
-8 -52 c-10 -65 -9 -216 1 -280 l7 -48 324 0 324 0 8 48 c9 51 8 238 -2 288
-5 28 -10 32 -52 38 -25 3 -110 6 -188 6 l-142 0 5 153 c2 83 0 168 -5 187
l-9 35 -126 3 -127 3 7 37 c9 48 9 256 0 305 l-7 37 59 0 c51 0 61 3 71 22 14
26 18 262 6 321 l-8 37 168 0 c92 0 178 3 191 6 13 4 25 18 30 33 11 42 8 319
-5 332 -7 7 -101 13 -261 16 l-250 6 -12 -23 c-14 -27 -19 -216 -7 -307 l8
-63 -125 0 -126 0 -7 -27 c-10 -35 -10 -265 -1 -315 l7 -38 -102 0 c-146 0
-146 0 -134 63 5 30 6 102 2 172 -4 66 -6 154 -4 195 2 41 3 105 3 143 -1 63
-2 234 -1 385 0 37 0 112 0 167 0 55 0 156 1 225 0 69 -2 137 -7 153 l-7 27
-195 0 -194 0 -8 -37z"/>
<path d="M5760 5135 c-12 -14 -15 -49 -15 -164 0 -80 3 -161 7 -178 l8 -33
-130 0 -129 0 -7 -35 c-3 -20 -5 -105 -2 -190 l4 -154 -61 -3 c-58 -3 -60 -4
-66 -33 -4 -16 -7 -86 -7 -155 0 -69 3 -138 7 -155 6 -29 8 -30 69 -33 l63 -3
-7 -47 c-10 -61 -10 -246 0 -294 l7 -38 129 0 130 0 -8 -32 c-9 -43 -9 -308 0
-330 7 -17 41 -18 518 -18 477 0 511 1 518 18 10 24 9 339 -1 349 -5 4 -208
10 -451 12 l-443 3 9 45 c9 42 7 280 -3 313 -3 13 59 16 506 20 l509 5 9 40
c5 22 6 101 2 175 -8 166 -8 157 0 315 3 72 2 150 -2 175 l-8 45 -122 5 c-67
3 -124 8 -127 11 -3 3 -1 41 4 85 10 74 1 266 -13 280 -3 3 -202 8 -443 11
-415 6 -440 5 -454 -12z m754 -412 c-10 -49 -10 -234 0 -295 l7 -48 -263 0
c-145 0 -286 3 -314 6 l-52 7 9 31 c11 39 11 249 0 299 l-9 37 315 0 314 0 -7
-37z"/>
<path d="M7660 5125 c-12 -33 -16 -247 -5 -317 l7 -48 -126 0 -126 0 -7 -27
c-10 -35 -10 -243 -1 -305 l8 -48 -60 0 c-51 0 -61 -3 -71 -22 -14 -25 -18
-264 -6 -320 l8 -38 64 0 64 0 -7 -37 c-9 -51 -9 -281 1 -315 l7 -28 126 0
126 0 -7 -51 c-9 -66 -9 -234 0 -288 l7 -41 513 0 514 0 12 58 c14 68 7 288
-11 306 -8 8 -139 12 -450 15 l-440 3 7 42 c10 54 10 239 0 294 l-7 42 509 0
510 0 7 22 c3 12 5 86 4 165 -3 175 -3 214 2 373 1 69 -1 142 -5 163 l-8 37
-107 0 c-149 0 -152 2 -140 53 13 55 6 303 -9 318 -7 7 -151 12 -451 16 l-441
6 -11 -28z m762 -397 c-9 -42 -9 -261 0 -310 l7 -38 -268 0 c-148 0 -289 3
-314 6 -44 6 -46 8 -40 33 10 36 9 257 0 304 l-8 37 315 0 316 0 -8 -32z"/>
</g>
</svg>
